<?xml version="1.0" ?><!DOCTYPE svg  PUBLIC '-//W3C//DTD SVG 1.1//EN'  'http://www.w3.org/Graphics/SVG/1.1/DTD/svg11.dtd'><svg enable-background="new 0 0 136.367 135.463" height="135.463px" id="Layer_1" version="1.1" viewBox="0 0 136.367 135.463" width="136.367px" xml:space="preserve" xmlns="http://www.w3.org/2000/svg" xmlns:xlink="http://www.w3.org/1999/xlink"><g><circle cx="68.184" cy="67.731" fill="#527FA3" r="63.333"/><path d="M112.966,22.946c24.734,24.734,24.735,64.834,0,89.568c-24.732,24.732-64.834,24.733-89.567,0   L112.966,22.946z" fill="#477493"/><g><path d="M131.235,73.603L96.45,38.817l-2.311,2.311l-4.535-4.536l-4.188,4.188l-3.813-3.813l-14.939,14.94    L50.763,36.005l-1.551,1.551l1.125,1.125l-0.699,0.699l-3.25-3.25l-1.613,1.613l1.5,1.5l-1.449,1.449l-2.813-2.813l-3.363,3.363    l3.063,3.063l-3.063,3.063l1.063,1.063l-1.063,1.063l2.563,2.563l-5.188,5.188l12.652,12.652l-2.647,2.646l8.349,8.348    L38.899,96.368l34.469,34.469C103.979,128.354,128.429,104.118,131.235,73.603z" fill="#416B82"/></g><g><g><path d="M100.718,59.183c-6.153,0-12.309,0-18.462,0c7.205,11.871-1.047,27.49-15.938,26.037     c-9.097-0.887-17.42-10.664-13.729-21.776c0.232-0.703,0.727-1.47,1.104-2.209c0.358-0.703,0.962-1.527,0.789-2.052     c-6.05,0-18.305,0-18.305,0v30.456c0.614,5.957,5.299,10.639,11.361,11.203h20.987h20.988     c6.073-0.626,10.602-5.681,11.203-11.045C100.718,89.797,100.718,64.47,100.718,59.183z" fill="#FFFFFF"/><g><path d="M66.792,56.185c-2.48,0.298-3.813,0.834-5.051,1.578c-2.843,1.707-5.518,4.89-5.996,9.152      c-0.967,8.604,5.345,14.518,12.624,14.518c5.799,0,12.854-4.143,12.782-12.781C81.085,60.785,74.809,55.221,66.792,56.185z       M77.68,71.175c-1.057,4.354-5.889,7.647-10.888,6.943c-4.779-0.672-9.915-6.611-7.103-13.254      c1.036-2.445,3.372-5.188,8.206-5.523C73.833,58.929,79.362,64.235,77.68,71.175z" fill="#FFFFFF"/></g></g><g><path d="M97.089,39.615c-1.74-1.74-4.588-3.336-7.732-3.629H68.433h-0.058H53.382v16.413h-2.683V35.986h-1.656     v16.413h-2.685V36.143c-0.594,0.113-1.176,0.269-1.735,0.462v15.795H41.94V37.88c-0.854,0.527-1.607,1.122-2.222,1.735     c-3.568,3.569-3.855,9.705-3.629,17.517h20.041c0.813-0.189,1.789-1.193,2.525-1.736c2.7-1.988,6.173-3.073,9.698-3.111h0.1     c3.525,0.038,6.999,1.123,9.698,3.111c0.737,0.543,1.711,1.547,2.524,1.736h20.041C100.808,49.242,100.659,43.185,97.089,39.615z      M94.337,50.261c0,0.92-0.745,1.665-1.663,1.665h-6.933c-0.918,0-1.663-0.745-1.663-1.665V43.33c0-0.919,0.745-1.663,1.663-1.663     h6.933c0.918,0,1.663,0.744,1.663,1.663V50.261z" fill="#FFFFFF"/></g></g></g></svg>