<?xml version="1.0" ?><!DOCTYPE svg  PUBLIC '-//W3C//DTD SVG 1.1//EN'  'http://www.w3.org/Graphics/SVG/1.1/DTD/svg11.dtd'><svg enable-background="new 0 0 136.367 135.463" height="135.463px" id="Layer_1" version="1.1" viewBox="0 0 136.367 135.463" width="136.367px" xml:space="preserve" xmlns="http://www.w3.org/2000/svg" xmlns:xlink="http://www.w3.org/1999/xlink"><g><g><g><g><circle cx="68.184" cy="67.731" fill="#D52528" r="63.333"/></g></g></g><path d="M112.967,22.946c24.732,24.734,24.734,64.834,0,89.568c-24.732,24.732-64.835,24.733-89.568,0   L112.967,22.946z" fill="#CC222D"/><g><path d="M130.552,78.691L87.931,36.07l-3.438,3.438l-3.438-3.438l-3.768,3.768l2.531,2.531l-0.826,0.826    l-6.563-6.563l-0.281,0.281l-8.844-8.844l-3.768,3.768l1.031,1.031l-1.514,1.514l-6.375-6.375l-2.643,2.643l6.215,14.967    l-2.799,11.491l7.653,7.654l-19.354,1.354L41.46,99.702l31.146,31.183C101.785,128.813,125.613,106.985,130.552,78.691z" fill="#BA202E"/></g><path d="M90.839,82.419h-4.085l0.019-2.372c0-1.055,0.866-1.916,1.925-1.916h0.261   c1.06,0,1.928,0.861,1.928,1.916L90.839,82.419z M75.521,77.335c-1.034,0-1.882,0.697-1.882,1.549v11.535   c0,0.852,0.848,1.545,1.882,1.545c1.041,0,1.889-0.693,1.889-1.545V78.884C77.41,78.032,76.563,77.335,75.521,77.335z    M100.394,70.885v21.942c0,5.264-4.564,9.57-10.144,9.57H48.538c-5.581,0-10.145-4.307-10.145-9.57V70.885   c0-5.264,4.563-9.572,10.145-9.572H90.25C95.829,61.313,100.394,65.621,100.394,70.885z M51.32,95.209l-0.003-23.113l5.171,0.002   v-3.426l-13.783-0.021v3.366l4.302,0.013v23.179H51.32z M66.82,75.539H62.51v12.342c0,1.786,0.107,2.679-0.007,2.993   c-0.351,0.957-1.927,1.973-2.541,0.104c-0.104-0.328-0.012-1.316-0.014-3.013L59.93,75.539h-4.287l0.015,12.231   c0.003,1.875-0.042,3.273,0.015,3.909c0.105,1.122,0.066,2.431,1.108,3.176c1.938,1.399,5.657-0.208,6.586-2.205l-0.008,2.548   l3.462,0.005V75.539z M80.611,89.673l-0.009-10.273c-0.004-3.916-2.932-6.261-6.909-3.093l0.018-7.638l-4.308,0.007l-0.021,26.361   l3.542-0.052l0.322-1.643C77.773,97.497,80.618,94.651,80.611,89.673z M94.104,88.312l-3.233,0.017   c-0.001,0.129-0.007,0.276-0.009,0.438v1.804c0,0.965-0.797,1.751-1.766,1.751h-0.633c-0.971,0-1.767-0.786-1.767-1.751v-0.2   v-1.984v-2.561h7.401v-2.786c0-2.035-0.052-4.07-0.22-5.234c-0.53-3.683-5.697-4.267-8.309-2.382   c-0.82,0.589-1.445,1.377-1.811,2.437c-0.367,1.059-0.549,2.504-0.549,4.342v6.125C83.211,98.509,95.578,97.069,94.104,88.312z    M77.522,55.056c0.222,0.542,0.567,0.979,1.037,1.311c0.462,0.324,1.056,0.489,1.764,0.489c0.622,0,1.172-0.168,1.651-0.515   c0.478-0.345,0.882-0.859,1.21-1.547l-0.081,1.692h4.805V36.05h-3.783v15.905c0,0.86-0.711,1.565-1.578,1.565   c-0.861,0-1.574-0.705-1.574-1.565V36.05h-3.947v13.783c0,1.756,0.03,2.927,0.083,3.521C77.166,53.943,77.3,54.509,77.522,55.056z    M62.96,43.514c0-1.962,0.164-3.493,0.488-4.597c0.327-1.101,0.916-1.986,1.767-2.652c0.85-0.671,1.937-1.006,3.258-1.006   c1.111,0,2.063,0.219,2.86,0.646c0.798,0.43,1.416,0.987,1.843,1.676c0.437,0.691,0.731,1.402,0.891,2.129   c0.161,0.736,0.24,1.849,0.24,3.346v5.169c0,1.896-0.077,3.29-0.224,4.176c-0.145,0.888-0.459,1.711-0.945,2.482   c-0.479,0.764-1.1,1.335-1.851,1.699c-0.758,0.369-1.625,0.549-2.607,0.549c-1.095,0-2.019-0.151-2.778-0.468   c-0.762-0.314-1.352-0.788-1.771-1.417c-0.425-0.63-0.723-1.397-0.902-2.291c-0.181-0.895-0.268-2.238-0.268-4.03V43.514z    M66.722,51.633c0,1.156,0.863,2.101,1.912,2.101c1.05,0,1.906-0.944,1.906-2.101v-10.88c0-1.156-0.856-2.101-1.906-2.101   c-1.049,0-1.912,0.944-1.912,2.101V51.633z M53.423,57.125h4.535l0.005-15.674l5.356-13.427h-4.958l-2.848,9.975l-2.89-10.001   h-4.906l5.699,13.462L53.423,57.125z" fill="#FFFFFF" id="YouTube_2_"/></g></svg>